<svg viewBox="0 0 27 122" preserveAspectRatio="none" xmlns="http://www.w3.org/2000/svg">
	<path d="M25.36 1.64683L26.0709 2.35015H26.0709L25.36 1.64683ZM25.2891 0.296677C25.6776 -0.0959244 26.3107 -0.0993042 26.7033 0.289131C27.0959 0.677567 27.0993 1.31072 26.7109 1.70332L25.2891 0.296677ZM26.7033 120.289C27.0959 120.678 27.0993 121.311 26.7109 121.703C26.3225 122.096 25.6893 122.099 25.2967 121.711L26.7033 120.289ZM24.4165 120.828C24.0295 120.434 24.0351 119.8 24.4291 119.413C24.8231 119.026 25.4563 119.032 25.8433 119.426L24.4165 120.828ZM17.9946 110.192C18.3209 110.638 18.2241 111.263 17.7785 111.59C17.3329 111.916 16.7072 111.819 16.3809 111.374L17.9946 110.192ZM14.9419 109.347C14.6288 108.892 14.7438 108.269 15.1988 107.956C15.6537 107.643 16.2763 107.758 16.5895 108.213L14.9419 109.347ZM10.4678 97.7541C10.7111 98.2499 10.5065 98.8491 10.0107 99.0924C9.51489 99.3358 8.91571 99.1311 8.67237 98.6353L10.4678 97.7541ZM7.61072 96.3896C7.38202 95.8869 7.60414 95.294 8.10685 95.0653C8.60955 94.8366 9.20248 95.0587 9.43118 95.5614L7.61072 96.3896ZM5.23217 84.193C5.38523 84.7237 5.07913 85.278 4.54848 85.431C4.01782 85.5841 3.46357 85.278 3.31051 84.7473L5.23217 84.193ZM2.65694 82.3508C2.5194 81.816 2.84151 81.2708 3.37639 81.1333C3.91127 80.9958 4.45638 81.3179 4.59392 81.8528L2.65694 82.3508ZM2.43498 69.926C2.49374 70.4751 2.0962 70.9679 1.54705 71.0267C0.997904 71.0854 0.505096 70.6879 0.446337 70.1387L2.43498 69.926ZM0.217796 67.665C0.174952 67.1144 0.586586 66.6333 1.13721 66.5904C1.68783 66.5476 2.16892 66.9592 2.21177 67.5098L0.217796 67.665ZM2.14678 55.389C2.10984 55.9401 1.63318 56.3569 1.08214 56.3199C0.531088 56.283 0.114319 55.8063 0.151255 55.2553L2.14678 55.389ZM0.353254 52.7792C0.406122 52.2295 0.894638 51.8267 1.44439 51.8795C1.99414 51.9324 2.39694 52.4209 2.34407 52.9706L0.353254 52.7792ZM4.37499 41.0214C4.24319 41.5577 3.70156 41.8857 3.16524 41.7539C2.62891 41.6221 2.30097 41.0804 2.43277 40.5441L4.37499 41.0214ZM3.06061 38.1408C3.20797 37.6085 3.75891 37.2965 4.29117 37.4438C4.82343 37.5912 5.13546 38.1421 4.9881 38.6744L3.06061 38.1408ZM9.06496 27.2616C8.84166 27.7668 8.25115 27.9952 7.74603 27.7719C7.2409 27.5486 7.01243 26.9581 7.23573 26.453L9.06496 27.2616ZM8.27323 24.196C8.51124 23.6977 9.10819 23.4866 9.60656 23.7246C10.1049 23.9626 10.316 24.5596 10.078 25.0579L8.27323 24.196ZM16.0872 14.5342C15.7789 14.9924 15.1576 15.1141 14.6993 14.8059C14.241 14.4977 14.1193 13.8763 14.4275 13.418L16.0872 14.5342ZM15.8447 11.3759C16.1662 10.9268 16.7908 10.8233 17.2399 11.1448C17.689 11.4662 17.7925 12.0909 17.471 12.54L15.8447 11.3759ZM25.2202 3.22234C24.8375 3.62047 24.2044 3.6329 23.8063 3.25013C23.4082 2.86736 23.3957 2.23431 23.7785 1.83619L25.2202 3.22234ZM24.7025 0.889603C25.0909 0.497002 25.7241 0.493622 26.1167 0.882057C26.5093 1.27049 26.5127 1.90365 26.1242 2.29625L24.7025 0.889603ZM26.6575 1.75723C26.2691 2.14983 25.6359 2.15321 25.2433 1.76477C24.8507 1.37634 24.8474 0.743179 25.2358 0.350578L26.6575 1.75723ZM25.2967 121.711C25.0007 121.418 24.7073 121.124 24.4165 120.828L25.8433 119.426C26.1274 119.715 26.4141 120.003 26.7033 120.289L25.2967 121.711ZM16.3809 111.374C15.8903 110.703 15.4106 110.028 14.9419 109.347L16.5895 108.213C17.0471 108.878 17.5155 109.538 17.9946 110.192L16.3809 111.374ZM8.67237 98.6353C8.30701 97.8909 7.95312 97.1422 7.61072 96.3896L9.43118 95.5614C9.7655 96.2963 10.111 97.0273 10.4678 97.7541L8.67237 98.6353ZM3.31051 84.7473C3.08085 83.9511 2.863 83.1522 2.65694 82.3508L4.59392 81.8528C4.79515 82.6353 5.0079 83.4155 5.23217 84.193L3.31051 84.7473ZM0.446337 70.1387C0.358206 69.3151 0.282024 68.4904 0.217796 67.665L2.21177 67.5098C2.2745 68.316 2.34891 69.1215 2.43498 69.926L0.446337 70.1387ZM0.151255 55.2553C0.206629 54.4292 0.273962 53.6037 0.353254 52.7792L2.34407 52.9706C2.26662 53.776 2.20086 54.5822 2.14678 55.389L0.151255 55.2553ZM2.43277 40.5441C2.63022 39.7406 2.8395 38.9394 3.06061 38.1408L4.9881 38.6744C4.77218 39.4543 4.56781 40.2367 4.37499 41.0214L2.43277 40.5441ZM7.23573 26.453C7.57004 25.6967 7.91587 24.9443 8.27323 24.196L10.078 25.0579C9.72906 25.7886 9.39139 26.5232 9.06496 27.2616L7.23573 26.453ZM14.4275 13.418C14.8889 12.732 15.3613 12.0512 15.8447 11.3759L17.471 12.54C16.9989 13.1995 16.5377 13.8643 16.0872 14.5342L14.4275 13.418ZM23.7785 1.83619C24.0661 1.53704 24.3563 1.23947 24.6492 0.943504L26.0709 2.35015C25.7848 2.63934 25.5012 2.93008 25.2202 3.22234L23.7785 1.83619ZM24.6492 0.943504L24.7025 0.889603L26.1242 2.29625L26.0709 2.35015L24.6492 0.943504ZM25.2358 0.350578L25.2891 0.296677L26.7109 1.70332L26.6575 1.75723L25.2358 0.350578Z"/>
</svg>
