<svg viewBox="0 0 27 122" preserveAspectRatio="none" xmlns="http://www.w3.org/2000/svg">
	<path d="M1.63996 1.64683L0.929096 2.35015H0.929096L1.63996 1.64683ZM1.71087 0.296677C1.32243 -0.0959244 0.689276 -0.0993042 0.296675 0.289131C-0.0959269 0.677567 -0.099304 1.31072 0.289132 1.70332L1.71087 0.296677ZM0.296715 120.289C-0.0959085 120.678 -0.0993217 121.311 0.289092 121.703C0.677505 122.096 1.31066 122.099 1.70328 121.711L0.296715 120.289ZM2.58348 120.828C2.9705 120.434 2.96485 119.8 2.57086 119.413C2.17686 119.026 1.54372 119.032 1.1567 119.426L2.58348 120.828ZM9.00538 110.192C8.67913 110.638 8.77589 111.263 9.2215 111.59C9.66712 111.916 10.2928 111.819 10.6191 111.374L9.00538 110.192ZM12.0581 109.347C12.3712 108.892 12.2562 108.269 11.8012 107.956C11.3463 107.643 10.7237 107.758 10.4105 108.213L12.0581 109.347ZM16.5322 97.7541C16.2889 98.2499 16.4935 98.8491 16.9893 99.0924C17.4851 99.3358 18.0843 99.1311 18.3276 98.6353L16.5322 97.7541ZM19.3893 96.3896C19.618 95.8869 19.3959 95.294 18.8932 95.0653C18.3904 94.8366 17.7975 95.0587 17.5688 95.5614L19.3893 96.3896ZM21.7678 84.193C21.6148 84.7237 21.9209 85.278 22.4515 85.431C22.9822 85.5841 23.5364 85.278 23.6895 84.7473L21.7678 84.193ZM24.3431 82.3508C24.4806 81.816 24.1585 81.2708 23.6236 81.1333C23.0887 80.9958 22.5436 81.3179 22.4061 81.8528L24.3431 82.3508ZM24.565 69.926C24.5063 70.4751 24.9038 70.9679 25.4529 71.0267C26.0021 71.0854 26.4949 70.6879 26.5537 70.1387L24.565 69.926ZM26.7822 67.665C26.825 67.1144 26.4134 66.6333 25.8628 66.5904C25.3122 66.5476 24.8311 66.9592 24.7882 67.5098L26.7822 67.665ZM24.8532 55.389C24.8902 55.9401 25.3668 56.3569 25.9179 56.3199C26.4689 56.283 26.8857 55.8063 26.8487 55.2553L24.8532 55.389ZM26.6467 52.7792C26.5939 52.2295 26.1054 51.8267 25.5556 51.8795C25.0059 51.9324 24.6031 52.4209 24.6559 52.9706L26.6467 52.7792ZM22.625 41.0214C22.7568 41.5577 23.2984 41.8857 23.8348 41.7539C24.3711 41.6221 24.699 41.0804 24.5672 40.5441L22.625 41.0214ZM23.9394 38.1408C23.792 37.6085 23.2411 37.2965 22.7088 37.4438C22.1766 37.5912 21.8645 38.1421 22.0119 38.6744L23.9394 38.1408ZM17.935 27.2616C18.1583 27.7668 18.7488 27.9952 19.254 27.7719C19.7591 27.5486 19.9876 26.9581 19.7643 26.453L17.935 27.2616ZM18.7268 24.196C18.4888 23.6977 17.8918 23.4866 17.3934 23.7246C16.8951 23.9626 16.684 24.5596 16.922 25.0579L18.7268 24.196ZM10.9128 14.5342C11.2211 14.9924 11.8424 15.1141 12.3007 14.8059C12.759 14.4977 12.8807 13.8763 12.5725 13.418L10.9128 14.5342ZM11.1553 11.3759C10.8338 10.9268 10.2092 10.8233 9.76008 11.1448C9.31099 11.4662 9.20753 12.0909 9.52899 12.54L11.1553 11.3759ZM1.77977 3.22234C2.16255 3.62047 2.79559 3.6329 3.19371 3.25013C3.59184 2.86736 3.60428 2.23431 3.2215 1.83619L1.77977 3.22234ZM2.2975 0.889603C1.90907 0.497002 1.27591 0.493622 0.883309 0.882057C0.490707 1.27049 0.48733 1.90365 0.875766 2.29625L2.2975 0.889603ZM0.342462 1.75723C0.730898 2.14983 1.36405 2.15321 1.75666 1.76477C2.14926 1.37634 2.15263 0.743179 1.7642 0.350578L0.342462 1.75723ZM1.70328 121.711C1.99927 121.418 2.29267 121.124 2.58348 120.828L1.1567 119.426C0.872576 119.715 0.585914 120.003 0.296715 120.289L1.70328 121.711ZM10.6191 111.374C11.1097 110.703 11.5894 110.028 12.0581 109.347L10.4105 108.213C9.95289 108.878 9.48451 109.538 9.00538 110.192L10.6191 111.374ZM18.3276 98.6353C18.693 97.8909 19.0469 97.1422 19.3893 96.3896L17.5688 95.5614C17.2345 96.2963 16.889 97.0273 16.5322 97.7541L18.3276 98.6353ZM23.6895 84.7473C23.9191 83.9511 24.137 83.1522 24.3431 82.3508L22.4061 81.8528C22.2048 82.6353 21.9921 83.4155 21.7678 84.193L23.6895 84.7473ZM26.5537 70.1387C26.6418 69.3151 26.718 68.4904 26.7822 67.665L24.7882 67.5098C24.7255 68.316 24.6511 69.1215 24.565 69.926L26.5537 70.1387ZM26.8487 55.2553C26.7934 54.4292 26.726 53.6037 26.6467 52.7792L24.6559 52.9706C24.7334 53.776 24.7991 54.5822 24.8532 55.389L26.8487 55.2553ZM24.5672 40.5441C24.3698 39.7406 24.1605 38.9394 23.9394 38.1408L22.0119 38.6744C22.2278 39.4543 22.4322 40.2367 22.625 41.0214L24.5672 40.5441ZM19.7643 26.453C19.43 25.6967 19.0841 24.9443 18.7268 24.196L16.922 25.0579C17.2709 25.7886 17.6086 26.5232 17.935 27.2616L19.7643 26.453ZM12.5725 13.418C12.1111 12.732 11.6387 12.0512 11.1553 11.3759L9.52899 12.54C10.0011 13.1995 10.4623 13.8643 10.9128 14.5342L12.5725 13.418ZM3.2215 1.83619C2.93388 1.53704 2.64366 1.23947 2.35083 0.943504L0.929096 2.35015C1.21521 2.63934 1.49877 2.93008 1.77977 3.22234L3.2215 1.83619ZM2.35083 0.943504L2.2975 0.889603L0.875766 2.29625L0.929096 2.35015L2.35083 0.943504ZM1.7642 0.350578L1.71087 0.296677L0.289132 1.70332L0.342462 1.75723L1.7642 0.350578Z"/>
</svg>
