<svg viewBox="0 0 349 42" preserveAspectRatio="none" xmlns="http://www.w3.org/2000/svg">
	<path d="M5.45237 38.9248L5.02991 38.0184L5.45237 38.9248ZM340.457 37.5586L340.872 36.6488L340.457 37.5586ZM348.415 40.0901C348.918 40.3194 349.139 40.9125 348.91 41.415C348.681 41.9175 348.087 42.139 347.585 41.9097L348.415 40.0901ZM0.948572 39.9207C1.44915 39.6874 2.0441 39.904 2.27741 40.4046C2.51073 40.9052 2.29407 41.5001 1.79349 41.7334L0.948572 39.9207ZM5.5038 40.0041C5.00322 40.2374 4.40828 40.0208 4.17496 39.5202C3.94164 39.0196 4.1583 38.4246 4.65888 38.1913L5.5038 40.0041ZM6.17027 37.4891C6.67158 37.2573 7.26584 37.4758 7.49759 37.9771C7.72934 38.4784 7.51082 39.0727 7.00951 39.3045L6.17027 37.4891ZM18.4304 34.2398C17.9221 34.4558 17.335 34.2188 17.119 33.7105C16.903 33.2022 17.14 32.615 17.6483 32.3991L18.4304 34.2398ZM19.9633 31.4241C20.473 31.2113 21.0586 31.4519 21.2714 31.9616C21.4842 32.4712 21.2435 33.0569 20.7339 33.2697L19.9633 31.4241ZM32.3351 28.638C31.8191 28.8347 31.2412 28.5758 31.0445 28.0598C30.8478 27.5437 31.1067 26.9659 31.6227 26.7692L32.3351 28.638ZM33.9704 25.8826C34.4876 25.6891 35.0638 25.9516 35.2573 26.4689C35.4508 26.9862 35.1883 27.5624 34.6711 27.7559L33.9704 25.8826ZM46.4373 23.5635C45.9142 23.7407 45.3465 23.4603 45.1693 22.9372C44.9921 22.4141 45.2725 21.8464 45.7956 21.6692L46.4373 23.5635ZM48.1783 20.8704C48.7025 20.6965 49.2684 20.9804 49.4423 21.5046C49.6162 22.0288 49.3323 22.5947 48.8081 22.7686L48.1783 20.8704ZM60.7252 19.0209C60.1959 19.1783 59.6391 18.8768 59.4817 18.3474C59.3243 17.8181 59.6258 17.2613 60.1552 17.1039L60.7252 19.0209ZM62.5643 16.3958C63.0946 16.2417 63.6495 16.5467 63.8035 17.0771C63.9576 17.6074 63.6526 18.1623 63.1223 18.3164L62.5643 16.3958ZM75.1707 15.0196C74.6358 15.157 74.0907 14.8347 73.9533 14.2998C73.8159 13.7649 74.1382 13.2199 74.6731 13.0825L75.1707 15.0196ZM77.1059 12.4657C77.6417 12.3317 78.1847 12.6573 78.3188 13.1931C78.4528 13.7289 78.1271 14.2719 77.5914 14.4059L77.1059 12.4657ZM89.7569 11.5639C89.2172 11.6811 88.6847 11.3386 88.5675 10.7989C88.4503 10.2592 88.7928 9.72667 89.3325 9.60948L89.7569 11.5639ZM91.7886 9.08419C92.3291 8.97037 92.8594 9.31622 92.9733 9.85665C93.0871 10.3971 92.7412 10.9274 92.2008 11.0413L91.7886 9.08419ZM104.463 8.65875C103.92 8.75558 103.4 8.3933 103.304 7.84957C103.207 7.30584 103.569 6.78656 104.113 6.68973L104.463 8.65875ZM106.586 6.25731C107.13 6.16389 107.647 6.52942 107.741 7.07374C107.834 7.61807 107.468 8.13507 106.924 8.22849L106.586 6.25731ZM119.267 6.30846C118.72 6.3848 118.215 6.00326 118.138 5.45628C118.062 4.9093 118.444 4.40399 118.991 4.32766L119.267 6.30846ZM121.479 3.98829C122.027 3.91538 122.53 4.30007 122.603 4.84752C122.675 5.39497 122.291 5.89787 121.743 5.97078L121.479 3.98829ZM134.151 4.51566C133.601 4.5714 133.11 4.17115 133.055 3.62169C132.999 3.07222 133.399 2.58161 133.949 2.52587L134.151 4.51566ZM136.448 2.28027C136.998 2.22798 137.486 2.63128 137.538 3.18109C137.59 3.73089 137.187 4.21899 136.637 4.27129L136.448 2.28027ZM149.09 3.28315C148.539 3.31822 148.063 2.89984 148.028 2.34867C147.993 1.7975 148.412 1.32226 148.963 1.28719L149.09 3.28315ZM151.469 1.13562C152.02 1.104 152.493 1.52535 152.525 2.07673C152.556 2.62811 152.135 3.10072 151.583 3.13234L151.469 1.13562ZM164.065 2.61244C163.513 2.62678 163.054 2.19085 163.039 1.63875C163.025 1.08665 163.461 0.627459 164.013 0.613112L164.065 2.61244ZM166.523 0.555727C167.076 0.544836 167.532 0.983633 167.543 1.53581C167.554 2.08799 167.115 2.54445 166.563 2.55534L166.523 0.555727ZM179.055 2.5044C178.503 2.49801 178.06 2.04514 178.066 1.4929C178.073 0.940647 178.526 0.498142 179.078 0.504531L179.055 2.5044ZM181.589 0.541434C182.141 0.55128 182.581 1.0069 182.571 1.5591C182.561 2.1113 182.105 2.55096 181.553 2.54112L181.589 0.541434ZM194.038 2.95921C193.487 2.93209 193.062 2.46293 193.089 1.91131C193.116 1.35969 193.585 0.934498 194.137 0.961617L194.038 2.95921ZM196.644 1.09274C197.195 1.12331 197.618 1.59512 197.587 2.14656C197.556 2.698 197.085 3.12025 196.533 3.08968L196.644 1.09274ZM208.994 3.97621C208.443 3.9284 208.036 3.44361 208.084 2.8934C208.132 2.34318 208.616 1.93591 209.167 1.98372L208.994 3.97621ZM211.668 2.20893C212.217 2.26018 212.622 2.74751 212.57 3.29742C212.519 3.84732 212.032 4.25155 211.482 4.2003L211.668 2.20893ZM223.901 5.55418C223.353 5.48574 222.964 4.98599 223.032 4.43796C223.101 3.88993 223.601 3.50115 224.149 3.56959L223.901 5.55418ZM226.64 3.88866C227.187 3.96053 227.573 4.4627 227.501 5.01029C227.429 5.55788 226.927 5.94352 226.38 5.87165L226.64 3.88866ZM238.738 7.69094C238.193 7.60196 237.823 7.08796 237.912 6.54289C238.001 5.99782 238.515 5.62809 239.06 5.71707L238.738 7.69094ZM241.536 6.12931C242.081 6.2217 242.447 6.738 242.355 7.2825C242.263 7.82701 241.746 8.19351 241.202 8.10112L241.536 6.12931ZM253.484 10.3835C252.942 10.2741 252.592 9.7466 252.701 9.20526C252.811 8.66392 253.338 8.31376 253.88 8.42317L253.484 10.3835ZM256.34 8.92841C256.881 9.0412 257.228 9.57091 257.115 10.1116C257.002 10.6522 256.472 10.999 255.932 10.8863L256.34 8.92841ZM268.12 13.6289C267.583 13.4992 267.253 12.9589 267.383 12.4221C267.512 11.8852 268.053 11.5551 268.59 11.6848L268.12 13.6289ZM271.027 12.2817C271.563 12.4148 271.89 12.9571 271.757 13.4932C271.624 14.0292 271.082 14.3559 270.546 14.2228L271.027 12.2817ZM282.62 17.4212C282.089 17.2715 281.779 16.7191 281.929 16.1875C282.079 15.6559 282.631 15.3464 283.163 15.4962L282.62 17.4212ZM285.578 16.1846C286.108 16.3377 286.414 16.892 286.261 17.4226C286.108 17.9532 285.554 18.2593 285.023 18.1062L285.578 16.1846ZM296.97 21.7566C296.445 21.587 296.156 21.0234 296.326 20.4978C296.496 19.9722 297.059 19.6836 297.585 19.8533L296.97 21.7566ZM299.974 20.6326C300.498 20.8056 300.783 21.3709 300.61 21.8955C300.438 22.42 299.872 22.705 299.348 22.5321L299.974 20.6326ZM311.148 26.6283C310.629 26.4391 310.362 25.865 310.551 25.3462C310.74 24.8274 311.314 24.5602 311.833 24.7495L311.148 26.6283ZM314.188 25.6168C314.706 25.8093 314.969 26.385 314.777 26.9027C314.584 27.4203 314.008 27.6839 313.491 27.4914L314.188 25.6168ZM325.129 32.0283C324.618 31.8197 324.373 31.236 324.581 30.7246C324.79 30.2133 325.373 29.9678 325.885 30.1764L325.129 32.0283ZM328.208 31.1325C328.718 31.3444 328.959 31.9295 328.748 32.4396C328.536 32.9496 327.951 33.1914 327.441 32.9796L328.208 31.1325ZM338.902 37.9509C338.399 37.7233 338.176 37.1308 338.404 36.6276C338.631 36.1244 339.224 35.9011 339.727 36.1287L338.902 37.9509ZM341.5 36.9356C342.003 37.1648 342.224 37.758 341.995 38.2604C341.766 38.7629 341.173 38.9844 340.67 38.7552L341.5 36.9356ZM346.956 41.623C346.454 41.3937 346.232 40.8006 346.462 40.2981C346.691 39.7956 347.284 39.5741 347.786 39.8034L346.956 41.623ZM0.577541 40.0936L0.948572 39.9207L1.79349 41.7334L1.42246 41.9064L0.577541 40.0936ZM4.65888 38.1913L5.02991 38.0184L5.87483 39.8312L5.5038 40.0041L4.65888 38.1913ZM5.02991 38.0184C5.40982 37.8413 5.78994 37.6649 6.17027 37.4891L7.00951 39.3045C6.63108 39.4794 6.25285 39.655 5.87483 39.8312L5.02991 38.0184ZM17.6483 32.3991C18.4192 32.0716 19.1909 31.7465 19.9633 31.4241L20.7339 33.2697C19.9653 33.5905 19.1975 33.9139 18.4304 34.2398L17.6483 32.3991ZM31.6227 26.7692C32.4046 26.4711 33.1871 26.1756 33.9704 25.8826L34.6711 27.7559C33.8917 28.0474 33.1131 28.3414 32.3351 28.638L31.6227 26.7692ZM45.7956 21.6692C46.5892 21.4004 47.3834 21.1341 48.1783 20.8704L48.8081 22.7686C48.0172 23.031 47.2269 23.296 46.4373 23.5635L45.7956 21.6692ZM60.1552 17.1039C60.9577 16.8653 61.7607 16.6293 62.5643 16.3958L63.1223 18.3164C62.3227 18.5487 61.5237 18.7835 60.7252 19.0209L60.1552 17.1039ZM74.6731 13.0825C75.4836 12.8743 76.2945 12.6687 77.1059 12.4657L77.5914 14.4059C76.784 14.6079 75.9771 14.8125 75.1707 15.0196L74.6731 13.0825ZM89.3325 9.60948C90.1508 9.43179 90.9695 9.25669 91.7886 9.08419L92.2008 11.0413C91.3857 11.2129 90.5711 11.3871 89.7569 11.5639L89.3325 9.60948ZM104.113 6.68973C104.937 6.54299 105.761 6.39885 106.586 6.25731L106.924 8.22849C106.104 8.36932 105.283 8.51275 104.463 8.65875L104.113 6.68973ZM118.991 4.32766C119.82 4.21193 120.649 4.0988 121.479 3.98829L121.743 5.97078C120.918 6.08075 120.092 6.19331 119.267 6.30846L118.991 4.32766ZM133.949 2.52587C134.782 2.44139 135.615 2.35953 136.448 2.28027L136.637 4.27129C135.808 4.35014 134.979 4.4316 134.151 4.51566L133.949 2.52587ZM148.963 1.28719C149.798 1.23405 150.633 1.18353 151.469 1.13562L151.583 3.13234C150.752 3.18001 149.921 3.23028 149.09 3.28315L148.963 1.28719ZM164.013 0.613112C164.85 0.591364 165.687 0.572237 166.523 0.555727L166.563 2.55534C165.73 2.57176 164.898 2.5908 164.065 2.61244L164.013 0.613112ZM179.078 0.504531C179.915 0.514213 180.752 0.526515 181.589 0.541434L181.553 2.54112C180.72 2.52627 179.888 2.51403 179.055 2.5044L179.078 0.504531ZM194.137 0.961617C194.972 1.00271 195.808 1.04642 196.644 1.09274L196.533 3.08968C195.702 3.04358 194.87 3.00009 194.038 2.95921L194.137 0.961617ZM209.167 1.98372C210 2.05617 210.834 2.13124 211.668 2.20893L211.482 4.2003C210.653 4.123 209.823 4.0483 208.994 3.97621L209.167 1.98372ZM224.149 3.56959C224.979 3.67334 225.81 3.77969 226.64 3.88866L226.38 5.87165C225.554 5.76323 224.727 5.6574 223.901 5.55418L224.149 3.56959ZM239.06 5.71707C239.886 5.85188 240.711 5.98929 241.536 6.12931L241.202 8.10112C240.381 7.9618 239.559 7.82508 238.738 7.69094L239.06 5.71707ZM253.88 8.42317C254.7 8.58898 255.52 8.7574 256.34 8.92841L255.932 10.8863C255.116 10.7161 254.3 10.5485 253.484 10.3835L253.88 8.42317ZM268.59 11.6848C269.403 11.8812 270.215 12.0802 271.027 12.2817L270.546 14.2228C269.737 14.0223 268.929 13.8243 268.12 13.6289L268.59 11.6848ZM283.163 15.4962C283.968 15.7231 284.773 15.9525 285.578 16.1846L285.023 18.1062C284.223 17.8753 283.422 17.647 282.62 17.4212L283.163 15.4962ZM297.585 19.8533C298.382 20.1105 299.178 20.3703 299.974 20.6326L299.348 22.5321C298.556 22.271 297.763 22.0125 296.97 21.7566L297.585 19.8533ZM311.833 24.7495C312.619 25.036 313.404 25.3252 314.188 25.6168L313.491 27.4914C312.71 27.2012 311.929 26.9135 311.148 26.6283L311.833 24.7495ZM325.885 30.1764C326.66 30.4926 327.434 30.8113 328.208 31.1325L327.441 32.9796C326.671 32.66 325.901 32.3429 325.129 32.0283L325.885 30.1764ZM339.727 36.1287C340.109 36.3015 340.49 36.4748 340.872 36.6488L340.042 38.4684C339.662 38.2953 339.282 38.1228 338.902 37.9509L339.727 36.1287ZM340.872 36.6488L341.5 36.9356L340.67 38.7552L340.042 38.4684L340.872 36.6488ZM347.786 39.8034L348.415 40.0901L347.585 41.9097L346.956 41.623L347.786 39.8034Z"/>
</svg>
