<svg viewBox="0 0 349 41" preserveAspectRatio="none" xmlns="http://www.w3.org/2000/svg">
	<path d="M23.1911 10.0502L22.8135 10.9762L23.1911 10.0502ZM322.537 11.1642L322.908 12.093L322.537 11.1642ZM348.371 1.9288C348.884 1.72405 349.133 1.14226 348.929 0.629329C348.724 0.1164 348.142 -0.133429 347.629 0.0713206L348.371 1.9288ZM1.54699 2.30305C2.05839 2.51161 2.64202 2.26612 2.85058 1.75473C3.05914 1.24334 2.81365 0.659699 2.30226 0.451138L1.54699 2.30305ZM11.5485 4.22207C11.0372 4.0135 10.4535 4.259 10.245 4.77039C10.0364 5.28178 10.2819 5.86541 10.7933 6.07398L11.5485 4.22207ZM12.6425 6.82816C13.1539 7.03672 13.7376 6.79123 13.9461 6.27984C14.1547 5.76845 13.9092 5.18481 13.3978 4.97625L12.6425 6.82816ZM22.6441 8.74718C22.1327 8.53862 21.5491 8.78411 21.3405 9.2955C21.1319 9.80689 21.3774 10.3905 21.8888 10.5991L22.6441 8.74718ZM23.9455 11.4359C24.4575 11.6429 25.0404 11.3956 25.2474 10.8836C25.4544 10.3716 25.2072 9.78867 24.6951 9.58166L23.9455 11.4359ZM36.0232 13.9622C35.5051 13.7709 34.93 14.0358 34.7387 14.5539C34.5473 15.0719 34.8122 15.647 35.3303 15.8384L36.0232 13.9622ZM37.6227 16.6771C38.142 16.8653 38.7154 16.5969 38.9036 16.0777C39.0918 15.5584 38.8234 14.985 38.3042 14.7968L37.6227 16.6771ZM49.782 18.7601C49.2573 18.5878 48.6922 18.8735 48.5199 19.3982C48.3476 19.9229 48.6333 20.488 49.1581 20.6602L49.782 18.7601ZM51.4799 21.4148C52.0056 21.5839 52.5689 21.2948 52.738 20.769C52.9071 20.2433 52.618 19.68 52.0922 19.5109L51.4799 21.4148ZM63.7093 23.053C63.1786 22.9 62.6244 23.2061 62.4714 23.7368C62.3184 24.2675 62.6245 24.8217 63.1552 24.9747L63.7093 23.053ZM65.5027 25.6438C66.0342 25.7936 66.5866 25.4841 66.7364 24.9525C66.8862 24.4209 66.5766 23.8686 66.045 23.7188L65.5027 25.6438ZM77.7817 26.8336C77.2458 26.7001 76.7031 27.0263 76.5696 27.5622C76.4361 28.0981 76.7623 28.6408 77.2982 28.7743L77.7817 26.8336ZM79.6692 29.3574C80.2059 29.4876 80.7466 29.1582 80.8768 28.6215C81.0071 28.0847 80.6776 27.5441 80.1409 27.4138L79.6692 29.3574ZM91.9852 30.0982C91.4448 29.9843 90.9144 30.3301 90.8005 30.8705C90.6867 31.4109 91.0325 31.9413 91.5729 32.0552L91.9852 30.0982ZM93.9629 32.5511C94.504 32.6617 95.0323 32.3127 95.1428 31.7716C95.2534 31.2305 94.9044 30.7022 94.3633 30.5916L93.9629 32.5511ZM106.296 32.8412C105.752 32.7472 105.235 33.1121 105.141 33.6563C105.047 34.2006 105.412 34.718 105.956 34.812L106.296 32.8412ZM108.363 35.2205C108.908 35.3112 109.423 34.9431 109.514 34.3983C109.605 33.8535 109.236 33.3384 108.692 33.2476L108.363 35.2205ZM120.7 35.06C120.153 34.9859 119.649 35.3695 119.575 35.9168C119.501 36.4641 119.884 36.9679 120.432 37.042L120.7 35.06ZM122.852 37.3621C123.399 37.4329 123.901 37.0462 123.971 36.4985C124.042 35.9507 123.656 35.4494 123.108 35.3786L122.852 37.3621ZM135.174 36.7512C134.624 36.6971 134.135 37.0989 134.081 37.6485C134.027 38.1981 134.428 38.6875 134.978 38.7416L135.174 36.7512ZM137.408 38.9732C137.958 39.0239 138.445 38.6192 138.496 38.0693C138.547 37.5193 138.142 37.0324 137.592 36.9816L137.408 38.9732ZM149.701 37.9128C149.149 37.8788 148.675 38.2982 148.641 38.8494C148.607 39.4007 149.026 39.8751 149.578 39.909L149.701 37.9128ZM152.014 40.0517C152.566 40.0823 153.038 39.6601 153.068 39.1087C153.099 38.5572 152.677 38.0854 152.125 38.0548L152.014 40.0517ZM164.259 38.5433C163.707 38.5295 163.249 38.9658 163.235 39.5179C163.221 40.0701 163.657 40.5288 164.209 40.5426L164.259 38.5433ZM166.65 40.5963C167.202 40.6067 167.658 40.1676 167.669 39.6154C167.679 39.0632 167.24 38.6071 166.688 38.5966L166.65 40.5963ZM178.832 38.6418C178.28 38.6482 177.837 39.101 177.844 39.6533C177.85 40.2055 178.303 40.6481 178.855 40.6417L178.832 38.6418ZM181.296 40.6062C181.848 40.5965 182.288 40.141 182.278 39.5888C182.268 39.0366 181.813 38.5968 181.261 38.6065L181.296 40.6062ZM193.398 38.2084C192.847 38.2349 192.421 38.7036 192.447 39.2552C192.474 39.8069 192.943 40.2326 193.494 40.2061L193.398 38.2084ZM195.932 40.0815C196.484 40.0517 196.906 39.5804 196.877 39.0289C196.847 38.4774 196.375 38.0546 195.824 38.0844L195.932 40.0815ZM207.939 37.2434C207.389 37.2901 206.98 37.774 207.027 38.3243C207.074 38.8746 207.558 39.2829 208.108 39.2363L207.939 37.2434ZM210.54 39.0228C211.09 38.9728 211.495 38.4864 211.445 37.9364C211.395 37.3864 210.909 36.981 210.359 37.031L210.54 39.0228ZM222.435 35.7482C221.887 35.8149 221.496 36.3134 221.563 36.8616C221.63 37.4099 222.128 37.8003 222.676 37.7336L222.435 35.7482ZM225.098 37.4315C225.646 37.3614 226.034 36.8606 225.964 36.3127C225.894 35.7649 225.393 35.3776 224.845 35.4476L225.098 37.4315ZM236.866 33.7246C236.321 33.8113 235.949 34.3237 236.036 34.8692C236.122 35.4146 236.635 35.7865 237.18 35.6998L236.866 33.7246ZM239.591 35.3093C240.136 35.2193 240.504 34.7046 240.414 34.1597C240.324 33.6148 239.81 33.2461 239.265 33.336L239.591 35.3093ZM251.214 31.1753C250.672 31.2818 250.319 31.8075 250.426 32.3494C250.532 32.8913 251.058 33.2443 251.6 33.1378L251.214 31.1753ZM253.994 32.6596C254.535 32.5498 254.885 32.022 254.775 31.4807C254.665 30.9395 254.137 30.5897 253.596 30.6996L253.994 32.6596ZM265.46 28.1034C264.922 28.2297 264.589 28.7679 264.715 29.3056C264.841 29.8432 265.379 30.1767 265.917 30.0505L265.46 28.1034ZM268.292 29.485C268.829 29.3555 269.159 28.8153 269.03 28.2784C268.9 27.7415 268.36 27.4113 267.823 27.5408L268.292 29.485ZM279.583 24.5134C279.05 24.6593 278.736 25.2093 278.882 25.742C279.028 26.2747 279.578 26.5883 280.111 26.4425L279.583 24.5134ZM282.463 25.7908C282.995 25.6418 283.305 25.0898 283.156 24.558C283.007 24.0262 282.455 23.716 281.923 23.865L282.463 25.7908ZM293.566 20.4095C293.039 20.5747 292.746 21.1358 292.911 21.6628C293.077 22.1898 293.638 22.4831 294.165 22.3179L293.566 20.4095ZM296.492 21.5807C297.018 21.4123 297.308 20.8494 297.139 20.3234C296.971 19.7974 296.408 19.5075 295.882 19.6759L296.492 21.5807ZM307.389 15.7982C306.869 15.9825 306.596 16.5539 306.78 17.0746C306.965 17.5952 307.536 17.8678 308.057 17.6835L307.389 15.7982ZM310.355 16.8619C310.875 16.6744 311.144 16.1013 310.956 15.5818C310.769 15.0623 310.196 14.7932 309.676 14.9806L310.355 16.8619ZM321.037 10.6845C320.523 10.8877 320.272 11.4687 320.475 11.9823C320.678 12.4958 321.259 12.7474 321.772 12.5442L321.037 10.6845ZM323.969 11.6694C324.482 11.4647 324.732 10.8829 324.527 10.37C324.322 9.85705 323.74 9.60722 323.227 9.81197L323.969 11.6694ZM333.837 5.5769C333.324 5.78165 333.074 6.36345 333.279 6.87638C333.484 7.3893 334.065 7.63913 334.578 7.43438L333.837 5.5769ZM336.7 6.58737C337.213 6.38262 337.463 5.80083 337.258 5.2879C337.054 4.77497 336.472 4.52514 335.959 4.72989L336.7 6.58737ZM346.568 0.494827C346.055 0.699576 345.806 1.28137 346.01 1.7943C346.215 2.30723 346.797 2.55706 347.31 2.35231L346.568 0.494827ZM0.622366 1.92596L1.54699 2.30305L2.30226 0.451138L1.37763 0.0740449L0.622366 1.92596ZM10.7933 6.07398L12.6425 6.82816L13.3978 4.97625L11.5485 4.22207L10.7933 6.07398ZM21.8888 10.5991L22.8135 10.9762L23.5687 9.12427L22.6441 8.74718L21.8888 10.5991ZM22.8135 10.9762C23.1906 11.13 23.568 11.2832 23.9455 11.4359L24.6951 9.58166C24.3195 9.42979 23.944 9.27733 23.5687 9.12427L22.8135 10.9762ZM35.3303 15.8384C36.0938 16.1204 36.8579 16.3999 37.6227 16.6771L38.3042 14.7968C37.5432 14.521 36.7829 14.2428 36.0232 13.9622L35.3303 15.8384ZM49.1581 20.6602C49.9314 20.9142 50.7053 21.1657 51.4799 21.4148L52.0922 19.5109C51.3216 19.263 50.5515 19.0127 49.782 18.7601L49.1581 20.6602ZM63.1552 24.9747C63.9372 25.2002 64.7196 25.4232 65.5027 25.6438L66.045 23.7188C65.266 23.4993 64.4874 23.2773 63.7093 23.053L63.1552 24.9747ZM77.2982 28.7743C78.0881 28.9711 78.8784 29.1655 79.6692 29.3574L80.1409 27.4138C79.3541 27.2228 78.5677 27.0294 77.7817 26.8336L77.2982 28.7743ZM91.5729 32.0552C92.3692 32.223 93.1658 32.3883 93.9629 32.5511L94.3633 30.5916C93.5702 30.4296 92.7775 30.2651 91.9852 30.0982L91.5729 32.0552ZM105.956 34.812C106.758 34.9506 107.56 35.0868 108.363 35.2205L108.692 33.2476C107.893 33.1146 107.094 32.9791 106.296 32.8412L105.956 34.812ZM120.432 37.042C121.238 37.1511 122.045 37.2578 122.852 37.3621L123.108 35.3786C122.305 35.2749 121.502 35.1687 120.7 35.06L120.432 37.042ZM134.978 38.7416C135.788 38.8213 136.598 38.8985 137.408 38.9732L137.592 36.9816C136.786 36.9073 135.98 36.8305 135.174 36.7512L134.978 38.7416ZM149.578 39.909C150.39 39.9591 151.202 40.0066 152.014 40.0517L152.125 38.0548C151.317 38.0099 150.509 37.9626 149.701 37.9128L149.578 39.909ZM164.209 40.5426C165.023 40.563 165.836 40.5809 166.65 40.5963L166.688 38.5966C165.878 38.5813 165.069 38.5635 164.259 38.5433L164.209 40.5426ZM178.855 40.6417C179.669 40.6324 180.482 40.6205 181.296 40.6062L181.261 38.6065C180.451 38.6208 179.642 38.6325 178.832 38.6418L178.855 40.6417ZM193.494 40.2061C194.307 40.167 195.12 40.1255 195.932 40.0815L195.824 38.0844C195.015 38.1282 194.207 38.1695 193.398 38.2084L193.494 40.2061ZM208.108 39.2363C208.919 39.1676 209.729 39.0964 210.54 39.0228L210.359 37.031C209.552 37.1043 208.746 37.1751 207.939 37.2434L208.108 39.2363ZM222.676 37.7336C223.484 37.6353 224.291 37.5346 225.098 37.4315L224.845 35.4476C224.042 35.5503 223.238 35.6505 222.435 35.7482L222.676 37.7336ZM237.18 35.6998C237.984 35.5721 238.787 35.442 239.591 35.3093L239.265 33.336C238.466 33.468 237.666 33.5975 236.866 33.7246L237.18 35.6998ZM251.6 33.1378C252.398 32.9808 253.196 32.8215 253.994 32.6596L253.596 30.6996C252.802 30.8606 252.008 31.0192 251.214 31.1753L251.6 33.1378ZM265.917 30.0505C266.709 29.8644 267.501 29.676 268.292 29.485L267.823 27.5408C267.036 27.7308 266.248 27.9183 265.46 28.1034L265.917 30.0505ZM280.111 26.4425C280.895 26.2277 281.68 26.0105 282.463 25.7908L281.923 23.865C281.144 24.0836 280.363 24.2997 279.583 24.5134L280.111 26.4425ZM294.165 22.3179C294.941 22.0746 295.717 21.8289 296.492 21.5807L295.882 19.6759C295.111 19.9228 294.339 20.1674 293.566 20.4095L294.165 22.3179ZM308.057 17.6835C308.823 17.412 309.59 17.1382 310.355 16.8619L309.676 14.9806C308.915 15.2555 308.152 15.528 307.389 15.7982L308.057 17.6835ZM321.772 12.5442C322.151 12.3944 322.53 12.244 322.908 12.093L322.167 10.2355C321.79 10.3857 321.413 10.5354 321.037 10.6845L321.772 12.5442ZM322.908 12.093L323.969 11.6694L323.227 9.81197L322.167 10.2355L322.908 12.093ZM334.578 7.43438L336.7 6.58737L335.959 4.72989L333.837 5.5769L334.578 7.43438ZM347.31 2.35231L348.371 1.9288L347.629 0.0713206L346.568 0.494827L347.31 2.35231Z"/>
</svg>
